<svg width="215" height="306" viewBox="0 0 215 306" fill="none" xmlns="http://www.w3.org/2000/svg">
<mask id="path-1-inside-1_673_157" fill="white">
<path d="M85 68C62.4566 68 40.8365 76.9553 24.8959 92.8959C8.95535 108.837 1.58046e-05 130.457 1.11464e-05 153C6.48821e-06 175.543 8.95533 197.163 24.8959 213.104C40.8365 229.045 62.4566 238 85 238L85 153L85 68Z"/>
</mask>
<path d="M85 68C62.4566 68 40.8365 76.9553 24.8959 92.8959C8.95535 108.837 1.58046e-05 130.457 1.11464e-05 153C6.48821e-06 175.543 8.95533 197.163 24.8959 213.104C40.8365 229.045 62.4566 238 85 238L85 153L85 68Z" stroke="white" stroke-width="2" mask="url(#path-1-inside-1_673_157)"/>
<rect x="84.5" y="305.5" width="305" height="130" transform="rotate(-90 84.5 305.5)" stroke="white"/>
<rect x="172.5" y="208.5" width="111" height="42" transform="rotate(-90 172.5 208.5)" stroke="white"/>
</svg>
